<svg id="Layer_1" data-name="Layer 1" xmlns="http://www.w3.org/2000/svg" viewBox="0 0 713.93 130.83"><defs><style>.cls-1,.cls-2{fill:#00539f;}.cls-1,.cls-3{fill-rule:evenodd;}.cls-3,.cls-4{fill:#8dc63f;}</style></defs><title>1-800-GOT-JUNK</title><path class="cls-1" d="M253,352.92a7.32,7.32,0,0,0-5.64,2.34,9.47,9.47,0,0,0-2.22,5.54,12.7,12.7,0,0,0,.8,6q3.62,6.37,10.42,3.94l0.42-.2a7.58,7.58,0,0,0,3.75-4.87,13.34,13.34,0,0,0-.22-7.68,7.28,7.28,0,0,0-6.64-5.06H253Zm0,2a4.88,4.88,0,0,1,4.41,2.7,9.49,9.49,0,0,1,1,4.78,9.05,9.05,0,0,1-1.15,4.53q-2.7,3.76-6.84,1.75a5.09,5.09,0,0,1-2-2.26,10.08,10.08,0,0,1-.85-5,8.58,8.58,0,0,1,1.28-4.29A4.8,4.8,0,0,1,253,354.89Z" transform="translate(-44.33 -240.58)"/><path class="cls-1" d="M263.77,353.24v17.83h2.41v-7.89q0.89,0,1.79,0a3.19,3.19,0,0,1,1.38.33,2.49,2.49,0,0,1,1,1,5.16,5.16,0,0,1,.32.69l2.29,5.83h2.66L273,364.68a6.54,6.54,0,0,0-.72-1.41,2.69,2.69,0,0,0-1.58-1.11,5.27,5.27,0,0,0,2.66-1.35,4.19,4.19,0,0,0,1.17-3.13,4.48,4.48,0,0,0-.8-2.54,4.26,4.26,0,0,0-2-1.42,9.72,9.72,0,0,0-3.22-.46h-4.71Zm2.41,1.94H268a6.59,6.59,0,0,1,2.12.27,2.71,2.71,0,0,1,1.31.88,2.78,2.78,0,0,1,.52,1.52,3,3,0,0,1-.48,2,3.11,3.11,0,0,1-1.76,1.19,5.84,5.84,0,0,1-1.64.21h-1.91v-6Z" transform="translate(-44.33 -240.58)"/><polygon class="cls-1" points="263.57 110 263.92 115.88 265.98 115.88 266.16 110 263.57 110"/><path class="cls-1" d="M324,353.7a11.33,11.33,0,0,0-5.85-.35,5.21,5.21,0,0,0-2.74,1.57,4.22,4.22,0,0,0-.17,5.14,6.93,6.93,0,0,0,2.29,2.09c0.93,0.51,1.83,1.06,2.73,1.63a5.67,5.67,0,0,1,1.2,1,2.71,2.71,0,0,1,.47,2.57,2.44,2.44,0,0,1-1.26,1.33,4.57,4.57,0,0,1-2,.43,8.15,8.15,0,0,1-3.25-.74,6.74,6.74,0,0,1-.81-0.39l-0.25,2.4a11.78,11.78,0,0,0,5.65.7,5.5,5.5,0,0,0,3.91-2.34,4.93,4.93,0,0,0,.63-3.93,4.65,4.65,0,0,0-1.33-2.07,14.36,14.36,0,0,0-2.79-1.93,22.38,22.38,0,0,1-2.24-1.39,3.81,3.81,0,0,1-.94-1,2,2,0,0,1,.5-2.74l0.16-.12a4.32,4.32,0,0,1,1.66-.49,7.59,7.59,0,0,1,4.21.74Z" transform="translate(-44.33 -240.58)"/><polygon class="cls-1" points="295.27 112.66 295.27 130.48 304.73 130.48 304.73 128.42 297.71 128.42 297.71 112.66 295.27 112.66"/><polygon class="cls-1" points="234.3 112.66 234.3 130.48 243.77 130.48 243.77 128.42 236.75 128.42 236.75 112.66 234.3 112.66"/><path class="cls-1" d="M359.06,353.24l-7,17.83h2.47l1.71-4.56h8.31l1.71,4.56H369l-6.89-17.83h-3Zm1.48,2.2,3.35,9.07H357Z" transform="translate(-44.33 -240.58)"/><path class="cls-1" d="M371.65,353.24v17.83h2.42v-7.89c0.59,0,1.19,0,1.78,0a3.23,3.23,0,0,1,1.39.33,2.51,2.51,0,0,1,1,1,5.93,5.93,0,0,1,.32.69l2.3,5.83h2.65l-2.67-6.38a6.58,6.58,0,0,0-.72-1.41,2.71,2.71,0,0,0-1.59-1.11,5.29,5.29,0,0,0,2.66-1.35,4.19,4.19,0,0,0,1.17-3.13,4.48,4.48,0,0,0-.79-2.54,4.28,4.28,0,0,0-2-1.42,9.68,9.68,0,0,0-3.21-.46h-4.71Zm2.42,1.94h1.83a6.62,6.62,0,0,1,2.12.27,2.67,2.67,0,0,1,1.31.88,2.78,2.78,0,0,1,.52,1.52,3.07,3.07,0,0,1-.48,2,3.16,3.16,0,0,1-1.77,1.19,5.85,5.85,0,0,1-1.64.21h-1.91v-6Z" transform="translate(-44.33 -240.58)"/><path class="cls-1" d="M399.43,354a13.11,13.11,0,0,0-8.6-.28,8.13,8.13,0,0,0-5.57,7.12,9.9,9.9,0,0,0,1.39,6.56,8.22,8.22,0,0,0,5.52,3.48,14.9,14.9,0,0,0,7.77-.71v-9h-6.07v2h3.7v5.43a7.92,7.92,0,0,1-7-.66,6.38,6.38,0,0,1-2.79-4.89,7.69,7.69,0,0,1,1.44-5.53,6.63,6.63,0,0,1,4.81-2.42,9.5,9.5,0,0,1,5,1Z" transform="translate(-44.33 -240.58)"/><polygon class="cls-1" points="358.66 112.66 358.66 130.48 368.4 130.48 368.4 128.44 361.1 128.44 361.1 122.25 367.78 122.25 367.78 120.24 361.1 120.24 361.1 114.59 368.18 114.59 368.18 112.66 358.66 112.66"/><polygon class="cls-1" points="150.47 112.66 150.47 130.48 160.2 130.48 160.2 128.44 152.91 128.44 152.91 122.25 159.59 122.25 159.59 120.24 152.91 120.24 152.91 114.59 159.99 114.59 159.99 112.66 150.47 112.66"/><path class="cls-1" d="M425.59,353.7a11.33,11.33,0,0,0-5.85-.35,5.26,5.26,0,0,0-2.74,1.57,4.23,4.23,0,0,0-.17,5.14,6.89,6.89,0,0,0,2.3,2.09c0.92,0.51,1.83,1.06,2.72,1.63a5.44,5.44,0,0,1,1.19,1,2.68,2.68,0,0,1,.47,2.57,2.46,2.46,0,0,1-1.26,1.33,4.58,4.58,0,0,1-2,.43,8.17,8.17,0,0,1-3.25-.74,6.79,6.79,0,0,1-.81-0.39l-0.25,2.4a11.75,11.75,0,0,0,5.64.7,5.54,5.54,0,0,0,3.91-2.34,4.92,4.92,0,0,0,.62-3.93,4.58,4.58,0,0,0-1.34-2.07,14.12,14.12,0,0,0-2.78-1.93,22.61,22.61,0,0,1-2.24-1.39,3.61,3.61,0,0,1-.94-1,2,2,0,0,1,.5-2.74,0.74,0.74,0,0,1,.16-0.12,4.3,4.3,0,0,1,1.66-.49,7.62,7.62,0,0,1,4.21.74Z" transform="translate(-44.33 -240.58)"/><polygon class="cls-1" points="384.34 112.66 384.34 114.73 389.22 114.73 389.22 130.48 391.73 130.48 391.73 114.73 396.62 114.73 396.62 112.66 384.34 112.66"/><polygon class="cls-1" points="120.37 112.66 120.37 114.73 125.26 114.73 125.26 130.48 127.76 130.48 127.76 114.73 132.65 114.73 132.65 112.66 120.37 112.66"/><path class="cls-1" d="M455.65,353.24v11.3a9.3,9.3,0,0,1-.26,2.51,3.16,3.16,0,0,1-.59,1.23,2.13,2.13,0,0,1-1.29.73,3.79,3.79,0,0,1-2.14-.24V371a7.71,7.71,0,0,0,3.58.08,3.64,3.64,0,0,0,2.56-2.21,8.9,8.9,0,0,0,.6-3c0-.26,0-0.53,0-0.79V353.24h-2.46Z" transform="translate(-44.33 -240.58)"/><path class="cls-1" d="M461.35,353.24v10.59a10.43,10.43,0,0,0,.75,4.16,5.41,5.41,0,0,0,4,3.22,8.11,8.11,0,0,0,5-.42,5.38,5.38,0,0,0,2.84-3.18,11.82,11.82,0,0,0,.6-4V353.24h-2.27v10.28a9.24,9.24,0,0,1-.49,3.22,3.94,3.94,0,0,1-1.53,2,4.45,4.45,0,0,1-2.68.58,3.5,3.5,0,0,1-3.31-2.58,9,9,0,0,1-.41-3V353.24h-2.48Z" transform="translate(-44.33 -240.58)"/><path class="cls-1" d="M477.7,353.24v17.83h2.25V358c0-.52-0.08-1-0.14-1.57s-0.16-1.17-.25-1.74c0.21,0.71.45,1.41,0.71,2.1l0.14,0.28,7.79,14h3V353.24h-2.25v13.15a17.31,17.31,0,0,0,.36,3.12,23.64,23.64,0,0,0-.8-2.25l-0.06-.14-7.68-13.88h-3Z" transform="translate(-44.33 -240.58)"/><polygon class="cls-1" points="450.2 112.66 450.2 130.48 452.64 130.48 452.64 121.78 460.35 130.48 463.51 130.48 454.96 120.99 462.88 112.66 459.91 112.66 452.64 120.5 452.64 112.66 450.2 112.66"/><path class="cls-1" d="M520.78,353.24v17.83h2.4v-7.89c0.6,0,1.2,0,1.79,0a3.16,3.16,0,0,1,1.38.33,2.46,2.46,0,0,1,1,1,4.24,4.24,0,0,1,.32.69l2.3,5.83h2.65L530,364.68a6.7,6.7,0,0,0-.72-1.41,2.75,2.75,0,0,0-1.59-1.11,5.32,5.32,0,0,0,2.67-1.35,4.16,4.16,0,0,0,1.16-3.13,4.37,4.37,0,0,0-.79-2.54,4.25,4.25,0,0,0-2-1.42,9.66,9.66,0,0,0-3.22-.46h-4.7Zm2.4,1.94H525a6.63,6.63,0,0,1,2.12.27,2.63,2.63,0,0,1,1.3.88,2.75,2.75,0,0,1,.53,1.52,3,3,0,0,1-.48,2,3.08,3.08,0,0,1-1.75,1.19,5.88,5.88,0,0,1-1.64.21h-1.91v-6Z" transform="translate(-44.33 -240.58)"/><polygon class="cls-1" points="491.29 112.66 491.29 130.48 501.02 130.48 501.02 128.44 493.73 128.44 493.73 122.25 500.4 122.25 500.4 120.24 493.73 120.24 493.73 114.59 500.81 114.59 500.81 112.66 491.29 112.66"/><path class="cls-1" d="M548.9,353.24v17.83h2.18v-14c0-.67-0.08-1.35-0.14-2l-0.06-.73c0.17,0.71.35,1.42,0.58,2.12l0,0.06L557,371.06h2.17l5.6-14.31a15.27,15.27,0,0,0,.7-2.45,23.65,23.65,0,0,0-.19,2.77v14h2.37V353.24H564L558.63,367a6,6,0,0,0-.17.7c-0.11.53-.19,1.07-0.25,1.62a8.27,8.27,0,0,0-.42-2.3l-5.18-13.83h-3.7Z" transform="translate(-44.33 -240.58)"/><path class="cls-1" d="M579.23,352.92a7.3,7.3,0,0,0-5.64,2.34,9.32,9.32,0,0,0-2.23,5.54,12.53,12.53,0,0,0,.81,6q3.6,6.37,10.41,3.94l0.42-.2a7.64,7.64,0,0,0,3.75-4.87,13.42,13.42,0,0,0-.22-7.68,7.28,7.28,0,0,0-6.64-5.06h-0.66Zm0,2a4.89,4.89,0,0,1,4.42,2.7,9.6,9.6,0,0,1,1,4.78,8.9,8.9,0,0,1-1.15,4.53q-2.7,3.76-6.84,1.75a5.12,5.12,0,0,1-2-2.26,10,10,0,0,1-.84-5,8.5,8.5,0,0,1,1.27-4.29A4.79,4.79,0,0,1,579.23,354.89Z" transform="translate(-44.33 -240.58)"/><polygon class="cls-1" points="543.92 112.66 550.18 130.48 553.01 130.48 559.53 112.66 557.01 112.66 551.68 128.1 546.51 112.66 543.92 112.66"/><polygon class="cls-1" points="197.52 112.66 192.18 128.1 187.02 112.66 186.94 112.66 184.43 112.66 179.09 128.1 173.92 112.66 171.33 112.66 177.59 130.48 180.43 130.48 185.66 116.16 190.68 130.48 193.51 130.48 200.03 112.66 197.52 112.66"/><path class="cls-1" d="M609.74,353.24l-7,17.83h2.47l1.72-4.56h8.31l1.7,4.56h2.68l-6.9-17.83h-3Zm1.47,2.2,3.35,9.07h-6.87Z" transform="translate(-44.33 -240.58)"/><polygon class="cls-1" points="578 112.66 578 130.48 587.46 130.48 587.46 128.42 580.44 128.42 580.44 112.66 578 112.66"/><path class="cls-1" d="M653.67,353.7a11.31,11.31,0,0,0-5.85-.35,5.23,5.23,0,0,0-2.75,1.57,4.24,4.24,0,0,0-.16,5.14,7,7,0,0,0,2.29,2.09c0.92,0.51,1.83,1.06,2.71,1.63a5.31,5.31,0,0,1,1.2,1,2.7,2.7,0,0,1,.48,2.57,2.47,2.47,0,0,1-1.26,1.33,4.63,4.63,0,0,1-2,.43,8.25,8.25,0,0,1-3.26-.74,8,8,0,0,1-.81-0.39l-0.25,2.4a11.79,11.79,0,0,0,5.65.7,5.55,5.55,0,0,0,3.92-2.34,5,5,0,0,0,.62-3.93,4.65,4.65,0,0,0-1.34-2.07,14,14,0,0,0-2.79-1.93,23.08,23.08,0,0,1-2.24-1.39,3.88,3.88,0,0,1-.93-1,2,2,0,0,1,.5-2.74,0.78,0.78,0,0,1,.16-0.12,4.34,4.34,0,0,1,1.65-.49,7.58,7.58,0,0,1,4.21.74Z" transform="translate(-44.33 -240.58)"/><polygon class="cls-1" points="612.86 112.66 612.86 130.48 622.58 130.48 622.58 128.44 615.29 128.44 615.29 122.25 621.96 122.25 621.96 120.24 615.29 120.24 615.29 114.59 622.37 114.59 622.37 112.66 612.86 112.66"/><path class="cls-1" d="M670.34,353.24v17.83h2.43v-7.89c0.59,0,1.19,0,1.78,0a3.17,3.17,0,0,1,1.38.33,2.48,2.48,0,0,1,1,1c0.12,0.24.23,0.45,0.32,0.69l2.29,5.83h2.65l-2.67-6.38a6.85,6.85,0,0,0-.71-1.41,2.74,2.74,0,0,0-1.59-1.11,5.34,5.34,0,0,0,2.67-1.35,4.16,4.16,0,0,0,1.15-3.13,4.45,4.45,0,0,0-.78-2.54,4.35,4.35,0,0,0-2-1.42,9.68,9.68,0,0,0-3.21-.46h-4.71Zm2.43,1.94h1.83a6.53,6.53,0,0,1,2.11.27,2.64,2.64,0,0,1,1.32.88,2.7,2.7,0,0,1,.52,1.52,3,3,0,0,1-.48,2A3.1,3.1,0,0,1,676.3,361a5.85,5.85,0,0,1-1.63.21h-1.91v-6Z" transform="translate(-44.33 -240.58)"/><polygon class="cls-1" points="638.73 112.66 644.98 130.48 647.81 130.48 654.33 112.66 651.82 112.66 646.48 128.1 641.32 112.66 638.73 112.66"/><rect class="cls-2" x="657.63" y="112.65" width="2.44" height="17.83"/><path class="cls-1" d="M721.77,353.88a12.35,12.35,0,0,0-8.42.1,8.13,8.13,0,0,0-5,6.78,10,10,0,0,0,1.13,6.36,8.08,8.08,0,0,0,5.37,3.74,13.22,13.22,0,0,0,6.81-.35l-0.07-2.24a9.56,9.56,0,0,1-6.62.32,6,6,0,0,1-4-4.74,8.53,8.53,0,0,1,.61-5.26,6.09,6.09,0,0,1,4.42-3.24,9.52,9.52,0,0,1,5.62.69Z" transform="translate(-44.33 -240.58)"/><polygon class="cls-1" points="681.27 112.66 681.27 130.48 690.99 130.48 690.99 128.44 683.71 128.44 683.71 122.25 690.38 122.25 690.38 120.24 683.71 120.24 683.71 114.59 690.79 114.59 690.79 112.66 681.27 112.66"/><path class="cls-1" d="M749.63,327.67a8.63,8.63,0,1,0,0,17.25h0a8.62,8.62,0,0,0,8.62-8.62h0A8.62,8.62,0,0,0,749.63,327.67Zm0,15.93a7.31,7.31,0,1,1,7.31-7.31A7.31,7.31,0,0,1,749.63,343.6Zm3.41-9.9a2.89,2.89,0,0,0-2.79-2.2H745.8v9.4h1.64v-3.65H750l1.57,3.65h1.74l-1.69-4A2.94,2.94,0,0,0,753,333.7Zm-2.79,1.94h-2.81v-2.5h2.81a1.26,1.26,0,0,1,1.25,1.25A1.28,1.28,0,0,1,750.25,335.64Z" transform="translate(-44.33 -240.58)"/><path class="cls-3" d="M54.44,343.38H75.56V241.22H58.83a15,15,0,0,1-3.28,8.86,12.94,12.94,0,0,1-8.68,4.27c-0.85.07-1.69,0.1-2.54,0.1v16.48H54.44v72.44Z" transform="translate(-44.33 -240.58)"/><rect class="cls-4" x="37.4" y="43.38" width="24.35" height="16.9"/><path class="cls-3" d="M112.35,305.83q0,10.81.16,21.55a31.15,31.15,0,0,0,1.11,7.84,10.3,10.3,0,0,0,7.31,7.34,33.59,33.59,0,0,0,8.46,1.29,129,129,0,0,0,18.69-.38A22.61,22.61,0,0,0,154,342a9.67,9.67,0,0,0,5.6-6.17,26.52,26.52,0,0,0,1.32-7.29q0.32-9.73.16-19.45a63.75,63.75,0,0,0-.31-9,15.82,15.82,0,0,0-2.12-6.38,12.29,12.29,0,0,0-5.29-4.48,9.28,9.28,0,0,0-1.69-.69,11.42,11.42,0,0,0,5.61-2.87,10.86,10.86,0,0,0,3-5.29,28.72,28.72,0,0,0,.84-7.41q0.16-8.54-.21-17.07a27.06,27.06,0,0,0-1.32-7.3,10,10,0,0,0-5.77-6.09,24.92,24.92,0,0,0-6.51-1.52,122.43,122.43,0,0,0-21.54.06,24.76,24.76,0,0,0-6.09,1.4,9.58,9.58,0,0,0-5.77,5.88,27,27,0,0,0-1.27,7.08q-0.37,9.72-.16,19.44a20,20,0,0,0,1.48,7.29,10.28,10.28,0,0,0,6.4,5.89c0.53,0.18,1.06.33,1.59,0.49a15.53,15.53,0,0,0-5.66,3.4,12.66,12.66,0,0,0-3.23,6.32A36.33,36.33,0,0,0,112.35,305.83Zm27.53-31.76v2.05a3.14,3.14,0,0,1-.64,1.94,2.71,2.71,0,0,1-1.85,1,3.94,3.94,0,0,1-1.8-.12,2.62,2.62,0,0,1-1.43-1.3,6.89,6.89,0,0,1-.48-1.88,12.47,12.47,0,0,1-.1-1.68V260.79a3.74,3.74,0,0,1,.52-2,3,3,0,0,1,1.91-1.18,5.68,5.68,0,0,1,2,.11,2.62,2.62,0,0,1,1.48,1.41,5.5,5.5,0,0,1,.37,1.73,10.55,10.55,0,0,1,.05,1.89v11.29Zm0,47.75v2a3.17,3.17,0,0,1-.64,1.95,2.66,2.66,0,0,1-1.85,1,3.76,3.76,0,0,1-1.8-.11,2.63,2.63,0,0,1-1.43-1.35,6.11,6.11,0,0,1-.48-1.79,13.27,13.27,0,0,1-.1-1.72V300.64a3,3,0,0,1,.58-1.94,2.82,2.82,0,0,1,1.85-1.08,3.77,3.77,0,0,1,2,.1,2.25,2.25,0,0,1,1.43,1.3,4.78,4.78,0,0,1,.37,1.57,11.79,11.79,0,0,1,.05,2v19.23Z" transform="translate(-44.33 -240.58)"/><path class="cls-3" d="M167.48,262v60.61a57.06,57.06,0,0,0,.79,10.64,14.79,14.79,0,0,0,1.85,5.08,9.8,9.8,0,0,0,5.08,3.94,31.45,31.45,0,0,0,7.94,1.46,124.93,124.93,0,0,0,19.48-.22,25.43,25.43,0,0,0,6.51-1.5,9.69,9.69,0,0,0,5.66-6.12,27.85,27.85,0,0,0,1.27-7.23q0.15-3,.15-6V262a59.36,59.36,0,0,0-.74-10.63,14.38,14.38,0,0,0-1.9-5,10.27,10.27,0,0,0-5.09-3.95,31.32,31.32,0,0,0-8-1.5,129,129,0,0,0-19.64.23,23,23,0,0,0-6.08,1.34,9.66,9.66,0,0,0-5.14,4.38,16.41,16.41,0,0,0-1.69,5.66A67.2,67.2,0,0,0,167.48,262Zm21.23,0.77v-2.16a3.26,3.26,0,0,1,.69-2,2.8,2.8,0,0,1,1.8-1,4.15,4.15,0,0,1,1.9.11,2.56,2.56,0,0,1,1.48,1.41,5.29,5.29,0,0,1,.37,1.73,11.26,11.26,0,0,1,.05,1.89V324a3.37,3.37,0,0,1-.53,2,2.93,2.93,0,0,1-1.85,1,3.92,3.92,0,0,1-1.91-.06,2.46,2.46,0,0,1-1.43-1.35,5.62,5.62,0,0,1-.53-1.85c0-.57,0-1.14,0-1.71V262.78Z" transform="translate(-44.33 -240.58)"/><path class="cls-3" d="M222.61,262v60.61a56.41,56.41,0,0,0,.79,10.64,14.66,14.66,0,0,0,1.85,5.08,9.8,9.8,0,0,0,5.08,3.94,31.55,31.55,0,0,0,7.93,1.46,124.92,124.92,0,0,0,19.48-.22,25.54,25.54,0,0,0,6.51-1.5,9.69,9.69,0,0,0,5.66-6.12,27.62,27.62,0,0,0,1.27-7.23c0.11-2,.16-4,0.16-6V262a60.56,60.56,0,0,0-.74-10.63,14.39,14.39,0,0,0-1.91-5,10.29,10.29,0,0,0-5.08-3.95,31.34,31.34,0,0,0-8-1.5,129,129,0,0,0-19.64.23,23.13,23.13,0,0,0-6.09,1.34,9.68,9.68,0,0,0-5.14,4.38,16.48,16.48,0,0,0-1.69,5.66A65.92,65.92,0,0,0,222.61,262Zm21.22,0.77v-2.16a3.28,3.28,0,0,1,.69-2,2.79,2.79,0,0,1,1.8-1,4.15,4.15,0,0,1,1.9.11,2.57,2.57,0,0,1,1.48,1.41,5.18,5.18,0,0,1,.37,1.73,10.14,10.14,0,0,1,.06,1.89V324a3.34,3.34,0,0,1-.53,2,2.94,2.94,0,0,1-1.85,1,3.91,3.91,0,0,1-1.9-.06,2.46,2.46,0,0,1-1.43-1.35,5.62,5.62,0,0,1-.53-1.85c0-.57-0.05-1.14-0.05-1.71V262.78Z" transform="translate(-44.33 -240.58)"/><rect class="cls-4" x="233.48" y="43.38" width="24.34" height="16.9"/><path class="cls-1" d="M308.19,261.75V323a56.19,56.19,0,0,0,.68,10,15.67,15.67,0,0,0,2.07,5.67,10.35,10.35,0,0,0,4.87,3.95,22.49,22.49,0,0,0,7.2,1.51,39.64,39.64,0,0,0,10.58-.42,15.85,15.85,0,0,0,8.27-4.87c0.63-.69,1.23-1.4,1.8-2.15l3.86,6.79h9.42V291h-25.2v16.47h4v16.81a3.7,3.7,0,0,1-.37,1.62,2.78,2.78,0,0,1-1.91,1.4,4.67,4.67,0,0,1-2-.12,2.43,2.43,0,0,1-1.44-1.29,5.75,5.75,0,0,1-.53-1.85c0-.56-0.05-1.14-0.05-1.72V262.4a18.39,18.39,0,0,1,.1-2.75,4.33,4.33,0,0,1,.43-1.3,2.1,2.1,0,0,1,1.32-1,4.62,4.62,0,0,1,2,0,2.75,2.75,0,0,1,1.48.81,2.88,2.88,0,0,1,.69,1.4,10.31,10.31,0,0,1,.26,2.75V276h21.23c0.07-6.33,0-12.69-.11-19.06a31.78,31.78,0,0,0-1.17-7.73,10.44,10.44,0,0,0-2.65-4.64,11.83,11.83,0,0,0-4.71-2.6,39.49,39.49,0,0,0-8.47-1.24,141.47,141.47,0,0,0-18.84.39,23.18,23.18,0,0,0-5.93,1.4,9.34,9.34,0,0,0-5.56,6,24.05,24.05,0,0,0-1.11,6.54C308.26,257.3,308.19,259.52,308.19,261.75Z" transform="translate(-44.33 -240.58)"/><path class="cls-1" d="M362.23,261.75v61.09a61.22,61.22,0,0,0,.74,10.75,16.33,16.33,0,0,0,1.9,5.08,9.86,9.86,0,0,0,5.08,3.9A31.07,31.07,0,0,0,377.9,344a134,134,0,0,0,19.48-.22,25.41,25.41,0,0,0,6.51-1.51,9.5,9.5,0,0,0,5.67-6,28.35,28.35,0,0,0,1.27-7.29c0.1-2,.16-4.05.16-6.11V261.75a60.5,60.5,0,0,0-.64-10.1,16.71,16.71,0,0,0-1.79-5.18,9.62,9.62,0,0,0-4.87-4.07,26.1,26.1,0,0,0-6.56-1.39,129.24,129.24,0,0,0-21.55.05,23.66,23.66,0,0,0-6.09,1.33,9.32,9.32,0,0,0-4.92,3.95,14.41,14.41,0,0,0-1.75,5.46A63.83,63.83,0,0,0,362.23,261.75Zm21.23,0.65a21.08,21.08,0,0,1,0-2.21,3.59,3.59,0,0,1,.63-1.89,2.75,2.75,0,0,1,2.17-1,5.11,5.11,0,0,1,1.43.21,2.42,2.42,0,0,1,1.64,1.52,6.23,6.23,0,0,1,.37,1.84,6.7,6.7,0,0,1,.05,1.51v61.86a3.13,3.13,0,0,1-.52,1.94,2.9,2.9,0,0,1-1.85,1.08,4.4,4.4,0,0,1-2-.12,2.4,2.4,0,0,1-1.37-1.29,6.24,6.24,0,0,1-.48-1.85,15,15,0,0,1-.11-1.83V262.4Z" transform="translate(-44.33 -240.58)"/><polygon class="cls-1" points="380.18 102.89 401.25 102.89 401.25 17.49 412.1 17.49 412.1 0.64 369.32 0.64 369.32 17.49 380.18 17.49 380.18 102.89"/><rect class="cls-2" x="411.12" y="43.38" width="24.35" height="16.9"/><path class="cls-1" d="M485.28,301.4v21.71a60.54,60.54,0,0,0,.69,10.42,14.55,14.55,0,0,0,1.75,5,9.79,9.79,0,0,0,4.76,3.95A24.82,24.82,0,0,0,500,344a118.89,118.89,0,0,0,19.7-.22,23.86,23.86,0,0,0,5.93-1.4,9.46,9.46,0,0,0,5.66-5.94,26.44,26.44,0,0,0,1.17-6.59c0.17-2.23.24-4.47,0.2-6.7V241.22H511.42v83a4,4,0,0,1-.37,1.72,2.25,2.25,0,0,1-1.54,1.3,4.3,4.3,0,0,1-2.12.1,2.23,2.23,0,0,1-1.53-1.25,5.17,5.17,0,0,1-.43-1.77c-0.07-.66-0.12-1.3-0.17-1.95v-21h-20Z" transform="translate(-44.33 -240.58)"/><path class="cls-1" d="M539,241.22v81.89a56.75,56.75,0,0,0,.69,10.16,15.79,15.79,0,0,0,1.74,5.19,9.31,9.31,0,0,0,4.87,4,26.17,26.17,0,0,0,6.51,1.39,129.85,129.85,0,0,0,21.92-.11,24.51,24.51,0,0,0,5.93-1.4,9.49,9.49,0,0,0,5.67-5.94,28.32,28.32,0,0,0,1.26-7.24q0.16-3,.16-6V241.22H566.49v83a3.5,3.5,0,0,1-.48,1.94,2.88,2.88,0,0,1-1.85,1.18,3.66,3.66,0,0,1-2-.1,2.22,2.22,0,0,1-1.43-1.3,5.45,5.45,0,0,1-.53-1.84c0-.57-0.06-1.14-0.06-1.72V241.22H539Z" transform="translate(-44.33 -240.58)"/><polygon class="cls-1" points="549.11 102.89 567.48 102.89 567.48 52.77 578.07 102.89 597.88 102.89 597.88 0.64 579.39 0.64 579.39 53.05 568.86 0.64 549.11 0.64 549.11 102.89"/><polygon class="cls-1" points="623.44 53.9 633.65 102.89 654.99 102.89 641.53 46.61 652.5 0.64 631.54 0.64 623.44 41.7 623.44 0.64 603.16 0.64 603.16 102.89 623.44 102.89 623.44 53.9"/><path class="cls-1" d="M713.67,343.47h21.06V326.63H713.67v16.84Zm0-23.27h21c0-3.38,0-6.78.06-10.15A18.61,18.61,0,0,1,735.9,304a27.78,27.78,0,0,1,2.81-4.8,124.19,124.19,0,0,0,7-10.54,24.69,24.69,0,0,0,3.23-11.93q0.15-10.17-.05-20.31a29.26,29.26,0,0,0-1-7.08,10.38,10.38,0,0,0-3.65-5.4,14.78,14.78,0,0,0-5.4-2.26,52.63,52.63,0,0,0-11-1,110.73,110.73,0,0,0-14.4.49,21,21,0,0,0-5.82,1.46,9.58,9.58,0,0,0-5.71,6.09,26.26,26.26,0,0,0-1.37,7.53q-0.28,7.78-.22,15.6V277h21V262a7.89,7.89,0,0,1,.32-2.22,3,3,0,0,1,.8-1.35,2.27,2.27,0,0,1,1.27-.59,5.27,5.27,0,0,1,2.38.11,2.77,2.77,0,0,1,1.8,2.11,3,3,0,0,1,.1.81q0.06,7.12,0,14.2a14.57,14.57,0,0,1-1,5.08,25.9,25.9,0,0,1-2.75,5c-2.19,3.05-4.33,6.17-6.41,9.29a25.92,25.92,0,0,0-4,9.95,22.23,22.23,0,0,0-.16,3.46V320.2Z" transform="translate(-44.33 -240.58)"/><path class="cls-1" d="M303.67,357.2a8.09,8.09,0,0,0-5.37-3.74,13.48,13.48,0,0,0-6.82.35v16.62a12,12,0,0,0,8.32-.1,8.13,8.13,0,0,0,5-6.78A10.08,10.08,0,0,0,303.67,357.2Zm-2.12,8.52a6.12,6.12,0,0,1-4.42,3.24,9.67,9.67,0,0,1-3.21,0V355.41a10.07,10.07,0,0,1,4.26.31,6,6,0,0,1,4,4.74A8.46,8.46,0,0,1,301.55,365.72Z" transform="translate(-44.33 -240.58)"/><polygon class="cls-1" points="134.89 112.66 134.89 130.48 137.33 130.48 137.33 122.25 145.29 122.25 145.29 130.48 147.77 130.48 147.77 112.66 145.29 112.66 145.29 120.22 137.33 120.22 137.33 112.66 134.89 112.66"/></svg>