<?xml version="1.0" encoding="utf-8"?>
<!-- Generator: Adobe Illustrator 18.0.0, SVG Export Plug-In . SVG Version: 6.00 Build 0)  -->
<!DOCTYPE svg PUBLIC "-//W3C//DTD SVG 1.1//EN" "http://www.w3.org/Graphics/SVG/1.1/DTD/svg11.dtd">
<svg version="1.1" id="Layer_1" xmlns="http://www.w3.org/2000/svg" xmlns:xlink="http://www.w3.org/1999/xlink" x="0px" y="0px"
	 viewBox="0 0 760.7 230" enable-background="new 0 0 760.7 230" xml:space="preserve">
<g>
	<g>
		<path fill-rule="evenodd" clip-rule="evenodd" fill="#FFFFFF" d="M237.3,161.9c-2.2,0-4.1,0.7-5.6,2.3c-1.3,1.6-2.1,3.5-2.2,5.5
			c-0.2,2.1,0.1,4.1,0.8,6c2.4,4.2,5.9,5.6,10.4,3.9c0.1-0.1,0.3-0.1,0.4-0.2c1.9-1.1,3.2-2.7,3.8-4.9c0.7-2.6,0.6-5.1-0.2-7.7
			c-1.2-3.1-3.4-4.8-6.6-5.1C237.7,161.9,237.5,161.9,237.3,161.9z M237.3,163.9c2,0,3.4,1,4.4,2.7c0.8,1.5,1.1,3.1,1,4.8
			c0,1.6-0.4,3.1-1.2,4.5c-1.8,2.5-4.1,3.1-6.8,1.8c-0.9-0.5-1.5-1.3-2-2.3c-0.7-1.6-1-3.2-0.8-5c0-1.5,0.5-3,1.3-4.3
			C234.2,164.7,235.5,163.9,237.3,163.9z"/>
		<path fill-rule="evenodd" clip-rule="evenodd" fill="#FFFFFF" d="M248.1,162.2v17.8h2.4v-7.9c0.6,0,1.2,0,1.8,0
			c0.5,0,0.9,0.1,1.4,0.3c0.4,0.2,0.8,0.6,1,1c0.1,0.2,0.2,0.4,0.3,0.7l2.3,5.8h2.7l-2.7-6.4c-0.2-0.5-0.4-1-0.7-1.4
			c-0.4-0.6-0.9-0.9-1.6-1.1c1-0.2,1.9-0.6,2.7-1.4c0.8-0.9,1.2-1.9,1.2-3.1c0-0.9-0.3-1.8-0.8-2.5c-0.5-0.7-1.2-1.1-2-1.4
			c-1-0.3-2.1-0.5-3.2-0.5H248.1z M250.5,164.2h1.8c0.7,0,1.4,0.1,2.1,0.3c0.5,0.2,1,0.5,1.3,0.9c0.3,0.5,0.5,1,0.5,1.5
			c0.1,0.7-0.1,1.4-0.5,2c-0.5,0.6-1,1-1.8,1.2c-0.5,0.2-1.1,0.2-1.6,0.2h-1.9V164.2z"/>
		<polygon fill-rule="evenodd" clip-rule="evenodd" fill="#FFFFFF" points="292.2,159.6 292.6,165.5 294.6,165.5 294.8,159.6 		"/>
		<path fill-rule="evenodd" clip-rule="evenodd" fill="#FFFFFF" d="M308.4,162.7c-1.9-0.6-3.9-0.8-5.9-0.3c-1.1,0.2-2,0.8-2.7,1.6
			c-1.2,1.7-1.3,3.4-0.2,5.1c0.6,0.9,1.4,1.6,2.3,2.1c0.9,0.5,1.8,1.1,2.7,1.6c0.4,0.3,0.8,0.6,1.2,1c0.6,0.8,0.7,1.6,0.5,2.6
			c-0.2,0.6-0.7,1-1.3,1.3c-0.6,0.3-1.3,0.4-2,0.4c-1.1,0-2.2-0.3-3.2-0.7c-0.3-0.1-0.5-0.2-0.8-0.4l-0.2,2.4
			c1.8,0.7,3.7,0.9,5.6,0.7c1.6-0.2,2.9-1,3.9-2.3c0.8-1.2,1-2.5,0.6-3.9c-0.3-0.8-0.7-1.5-1.3-2.1c-0.9-0.8-1.8-1.4-2.8-1.9
			c-0.8-0.4-1.5-0.9-2.2-1.4c-0.4-0.3-0.7-0.6-0.9-1c-0.6-1.1-0.4-2,0.5-2.7c0.1,0,0.1-0.1,0.2-0.1c0.5-0.3,1.1-0.4,1.7-0.5
			c1.5-0.2,2.9,0.1,4.2,0.7L308.4,162.7z"/>
		<polygon fill-rule="evenodd" clip-rule="evenodd" fill="#FFFFFF" points="323.9,162.2 323.9,180.1 333.4,180.1 333.4,178 
			326.4,178 326.4,162.2 		"/>
		<polygon fill-rule="evenodd" clip-rule="evenodd" fill="#FFFFFF" points="263,162.2 263,180.1 272.4,180.1 272.4,178 265.4,178 
			265.4,162.2 		"/>
		<path fill-rule="evenodd" clip-rule="evenodd" fill="#FFFFFF" d="M343.4,162.2l-7,17.8h2.5l1.7-4.6h8.3l1.7,4.6h2.7l-6.9-17.8
			H343.4z M344.9,164.4l3.3,9.1h-6.9L344.9,164.4z"/>
		<path fill-rule="evenodd" clip-rule="evenodd" fill="#FFFFFF" d="M356,162.2v17.8h2.4v-7.9c0.6,0,1.2,0,1.8,0c0.5,0,1,0.1,1.4,0.3
			c0.4,0.2,0.8,0.6,1,1c0.1,0.2,0.2,0.4,0.3,0.7l2.3,5.8h2.6l-2.7-6.4c-0.2-0.5-0.4-1-0.7-1.4c-0.4-0.6-0.9-0.9-1.6-1.1
			c1-0.2,1.9-0.6,2.7-1.4c0.8-0.9,1.2-1.9,1.2-3.1c0-0.9-0.3-1.8-0.8-2.5c-0.5-0.7-1.2-1.1-2-1.4c-1-0.3-2.1-0.5-3.2-0.5H356z
			 M358.4,164.2h1.8c0.7,0,1.4,0.1,2.1,0.3c0.5,0.2,1,0.5,1.3,0.9c0.3,0.5,0.5,1,0.5,1.5c0.1,0.7-0.1,1.4-0.5,2
			c-0.5,0.6-1,1-1.8,1.2c-0.5,0.2-1.1,0.2-1.6,0.2h-1.9V164.2z"/>
		<path fill-rule="evenodd" clip-rule="evenodd" fill="#FFFFFF" d="M383.8,163c-2.8-1.1-5.7-1.2-8.6-0.3c-3.3,1.2-5.1,3.6-5.6,7.1
			c-0.3,2.4,0.2,4.5,1.4,6.6c1.4,1.9,3.2,3.1,5.5,3.5c2.7,0.5,5.2,0.2,7.8-0.7v-9h-6.1v2h3.7v5.4c-2.4,0.9-4.8,0.7-7-0.7
			c-1.7-1.2-2.6-2.8-2.8-4.9c-0.2-2,0.2-3.9,1.4-5.5c1.3-1.5,2.9-2.3,4.8-2.4c1.8-0.1,3.5,0.2,5,1L383.8,163z"/>
		<polygon fill-rule="evenodd" clip-rule="evenodd" fill="#FFFFFF" points="387.3,162.2 387.3,180.1 397.1,180.1 397.1,178 
			389.8,178 389.8,171.8 396.4,171.8 396.4,169.8 389.8,169.8 389.8,164.2 396.8,164.2 396.8,162.2 		"/>
		<polygon fill-rule="evenodd" clip-rule="evenodd" fill="#FFFFFF" points="179.1,162.2 179.1,180.1 188.9,180.1 188.9,178 
			181.6,178 181.6,171.8 188.2,171.8 188.2,169.8 181.6,169.8 181.6,164.2 188.6,164.2 188.6,162.2 		"/>
		<path fill-rule="evenodd" clip-rule="evenodd" fill="#FFFFFF" d="M409.9,162.7c-1.9-0.6-3.9-0.8-5.9-0.3c-1.1,0.2-2,0.8-2.7,1.6
			c-1.2,1.7-1.3,3.4-0.2,5.1c0.6,0.9,1.4,1.6,2.3,2.1c0.9,0.5,1.8,1.1,2.7,1.6c0.5,0.3,0.8,0.6,1.2,1c0.6,0.8,0.8,1.6,0.5,2.6
			c-0.2,0.6-0.7,1-1.3,1.3c-0.6,0.3-1.3,0.4-2,0.4c-1.1,0-2.2-0.3-3.2-0.7c-0.3-0.1-0.5-0.2-0.8-0.4l-0.2,2.4
			c1.8,0.7,3.7,0.9,5.6,0.7c1.6-0.2,2.9-1,3.9-2.3c0.8-1.2,1-2.5,0.6-3.9c-0.3-0.8-0.7-1.5-1.3-2.1c-0.9-0.8-1.8-1.4-2.8-1.9
			c-0.8-0.4-1.5-0.9-2.2-1.4c-0.4-0.3-0.7-0.6-0.9-1c-0.6-1.1-0.4-2,0.5-2.7c0.1,0,0.1-0.1,0.2-0.1c0.5-0.3,1.1-0.4,1.7-0.5
			c1.5-0.2,2.9,0.1,4.2,0.7L409.9,162.7z"/>
		<polygon fill-rule="evenodd" clip-rule="evenodd" fill="#FFFFFF" points="413,162.2 413,164.3 417.9,164.3 417.9,180.1 
			420.4,180.1 420.4,164.3 425.3,164.3 425.3,162.2 		"/>
		<polygon fill-rule="evenodd" clip-rule="evenodd" fill="#FFFFFF" points="149,162.2 149,164.3 153.9,164.3 153.9,180.1 
			156.4,180.1 156.4,164.3 161.3,164.3 161.3,162.2 		"/>
		<path fill-rule="evenodd" clip-rule="evenodd" fill="#FFFFFF" d="M440,162.2v11.3c0,0.8-0.1,1.7-0.3,2.5c-0.1,0.5-0.3,0.9-0.6,1.2
			c-0.3,0.4-0.8,0.6-1.3,0.7c-0.7,0.1-1.5,0-2.1-0.2v2.2c1.2,0.3,2.4,0.3,3.6,0.1c1.2-0.3,2.1-1,2.6-2.2c0.4-1,0.6-1.9,0.6-3
			c0-0.3,0-0.5,0-0.8v-11.9H440z"/>
		<path fill-rule="evenodd" clip-rule="evenodd" fill="#FFFFFF" d="M445.7,162.2v10.6c0,1.4,0.2,2.8,0.8,4.2c0.8,1.8,2.2,2.8,4,3.2
			c1.7,0.4,3.4,0.2,5-0.4c1.4-0.7,2.3-1.7,2.8-3.2c0.4-1.3,0.6-2.7,0.6-4v-10.3h-2.3v10.3c0,1.1-0.1,2.2-0.5,3.2
			c-0.3,0.8-0.8,1.5-1.5,2c-0.8,0.5-1.7,0.7-2.7,0.6c-0.8,0-1.5-0.3-2.1-0.8c-0.6-0.5-1-1.1-1.2-1.8c-0.3-1-0.4-2-0.4-3v-10.5H445.7
			z"/>
		<path fill-rule="evenodd" clip-rule="evenodd" fill="#FFFFFF" d="M462,162.2v17.8h2.2V167c0-0.5-0.1-1-0.1-1.6
			c-0.1-0.6-0.2-1.2-0.3-1.7c0.2,0.7,0.4,1.4,0.7,2.1c0,0.1,0.1,0.2,0.1,0.3l7.8,14h3v-17.8h-2.3v13.2c0,1.1,0.1,2.1,0.4,3.1
			c-0.2-0.8-0.5-1.5-0.8-2.2l-0.1-0.1l-7.7-13.9H462z"/>
		<polygon fill-rule="evenodd" clip-rule="evenodd" fill="#FFFFFF" points="478.9,162.2 478.9,180.1 481.3,180.1 481.3,171.4 
			489,180.1 492.2,180.1 483.6,170.6 491.5,162.2 488.6,162.2 481.3,170.1 481.3,162.2 		"/>
		<path fill-rule="evenodd" clip-rule="evenodd" fill="#FFFFFF" d="M505.1,162.2v17.8h2.4v-7.9c0.6,0,1.2,0,1.8,0
			c0.5,0,1,0.1,1.4,0.3c0.4,0.2,0.8,0.6,1,1c0.1,0.2,0.2,0.4,0.3,0.7l2.3,5.8h2.6l-2.7-6.4c-0.2-0.5-0.4-1-0.7-1.4
			c-0.4-0.6-0.9-0.9-1.6-1.1c1-0.2,1.9-0.6,2.7-1.4c0.8-0.9,1.2-1.9,1.2-3.1c0-0.9-0.3-1.8-0.8-2.5c-0.5-0.7-1.2-1.1-2-1.4
			c-1-0.3-2.1-0.5-3.2-0.5H505.1z M507.5,164.2h1.8c0.7,0,1.4,0.1,2.1,0.3c0.5,0.2,1,0.5,1.3,0.9c0.3,0.5,0.5,1,0.5,1.5
			c0.1,0.7-0.1,1.4-0.5,2c-0.4,0.6-1,1-1.8,1.2c-0.5,0.2-1.1,0.2-1.6,0.2h-1.9V164.2z"/>
		<polygon fill-rule="evenodd" clip-rule="evenodd" fill="#FFFFFF" points="520,162.2 520,180.1 529.7,180.1 529.7,178 522.4,178 
			522.4,171.8 529.1,171.8 529.1,169.8 522.4,169.8 522.4,164.2 529.5,164.2 529.5,162.2 		"/>
		<path fill-rule="evenodd" clip-rule="evenodd" fill="#FFFFFF" d="M533.2,162.2v17.8h2.2v-14c0-0.7-0.1-1.3-0.1-2l-0.1-0.7
			c0.2,0.7,0.4,1.4,0.6,2.1l0,0.1l5.5,14.5h2.2l5.6-14.3c0.3-0.8,0.5-1.6,0.7-2.5c-0.1,0.9-0.2,1.9-0.2,2.8v14h2.4v-17.8h-3.6
			L543,176c-0.1,0.2-0.1,0.5-0.2,0.7c-0.1,0.5-0.2,1.1-0.3,1.6c0-0.8-0.2-1.6-0.4-2.3l-5.2-13.8H533.2z"/>
		<path fill-rule="evenodd" clip-rule="evenodd" fill="#FFFFFF" d="M563.6,161.9c-2.2,0-4.1,0.7-5.6,2.3c-1.4,1.6-2.1,3.5-2.2,5.5
			c-0.2,2.1,0.1,4.1,0.8,6c2.4,4.2,5.9,5.6,10.4,3.9c0.1-0.1,0.3-0.1,0.4-0.2c1.9-1.1,3.2-2.7,3.8-4.9c0.7-2.6,0.6-5.1-0.2-7.7
			c-1.2-3.1-3.4-4.8-6.6-5.1C564,161.9,563.8,161.9,563.6,161.9z M563.6,163.9c2,0,3.4,1,4.4,2.7c0.8,1.5,1.1,3.1,1,4.8
			c0,1.6-0.4,3.1-1.1,4.5c-1.8,2.5-4.1,3.1-6.8,1.8c-0.9-0.5-1.5-1.3-2-2.3c-0.7-1.6-1-3.2-0.8-5c0-1.5,0.5-3,1.3-4.3
			C560.4,164.7,561.8,163.9,563.6,163.9z"/>
		<polygon fill-rule="evenodd" clip-rule="evenodd" fill="#FFFFFF" points="572.6,162.2 578.8,180.1 581.7,180.1 588.2,162.2 
			585.7,162.2 580.3,177.7 575.2,162.2 		"/>
		<polygon fill-rule="evenodd" clip-rule="evenodd" fill="#FFFFFF" points="226.2,162.2 220.8,177.7 215.7,162.2 215.6,162.2 
			213.1,162.2 207.7,177.7 202.6,162.2 200,162.2 206.2,180.1 209.1,180.1 214.3,165.7 219.3,180.1 222.2,180.1 228.7,162.2 		"/>
		<path fill-rule="evenodd" clip-rule="evenodd" fill="#FFFFFF" d="M594.1,162.2l-7,17.8h2.5l1.7-4.6h8.3l1.7,4.6h2.7l-6.9-17.8
			H594.1z M595.6,164.4l3.3,9.1H592L595.6,164.4z"/>
		<polygon fill-rule="evenodd" clip-rule="evenodd" fill="#FFFFFF" points="606.7,162.2 606.7,180.1 616.1,180.1 616.1,178 
			609.1,178 609.1,162.2 		"/>
		<path fill-rule="evenodd" clip-rule="evenodd" fill="#FFFFFF" d="M638,162.7c-1.9-0.6-3.9-0.8-5.9-0.3c-1.1,0.2-2,0.8-2.8,1.6
			c-1.2,1.7-1.3,3.4-0.2,5.1c0.6,0.9,1.4,1.6,2.3,2.1c0.9,0.5,1.8,1.1,2.7,1.6c0.5,0.3,0.9,0.6,1.2,1c0.6,0.8,0.8,1.6,0.5,2.6
			c-0.2,0.6-0.7,1-1.3,1.3c-0.6,0.3-1.3,0.4-2,0.4c-1.1,0-2.2-0.3-3.3-0.7c-0.3-0.1-0.5-0.2-0.8-0.4l-0.3,2.4
			c1.8,0.7,3.7,0.9,5.6,0.7c1.6-0.2,2.9-1,3.9-2.3c0.8-1.2,1-2.5,0.6-3.9c-0.3-0.8-0.7-1.5-1.3-2.1c-0.9-0.8-1.8-1.4-2.8-1.9
			c-0.8-0.4-1.5-0.9-2.2-1.4c-0.4-0.3-0.7-0.6-0.9-1c-0.6-1.1-0.4-2,0.5-2.7c0.1,0,0.1-0.1,0.2-0.1c0.5-0.3,1.1-0.4,1.7-0.5
			c1.5-0.2,2.9,0.1,4.2,0.7L638,162.7z"/>
		<polygon fill-rule="evenodd" clip-rule="evenodd" fill="#FFFFFF" points="641.5,162.2 641.5,180.1 651.2,180.1 651.2,178 
			643.9,178 643.9,171.8 650.6,171.8 650.6,169.8 643.9,169.8 643.9,164.2 651,164.2 651,162.2 		"/>
		<path fill-rule="evenodd" clip-rule="evenodd" fill="#FFFFFF" d="M654.7,162.2v17.8h2.4v-7.9c0.6,0,1.2,0,1.8,0
			c0.5,0,0.9,0.1,1.4,0.3c0.4,0.2,0.8,0.6,1,1c0.1,0.2,0.2,0.4,0.3,0.7l2.3,5.8h2.7l-2.7-6.4c-0.2-0.5-0.4-1-0.7-1.4
			c-0.4-0.6-0.9-0.9-1.6-1.1c1-0.2,1.9-0.6,2.7-1.4c0.8-0.9,1.2-1.9,1.1-3.1c0-0.9-0.3-1.8-0.8-2.5c-0.5-0.7-1.2-1.1-2-1.4
			c-1-0.3-2.1-0.5-3.2-0.5H654.7z M657.1,164.2h1.8c0.7,0,1.4,0.1,2.1,0.3c0.5,0.2,1,0.5,1.3,0.9c0.3,0.5,0.5,1,0.5,1.5
			c0.1,0.7-0.1,1.4-0.5,2c-0.4,0.6-1,1-1.8,1.2c-0.5,0.2-1.1,0.2-1.6,0.2h-1.9V164.2z"/>
		<polygon fill-rule="evenodd" clip-rule="evenodd" fill="#FFFFFF" points="667.4,162.2 673.6,180.1 676.5,180.1 683,162.2 
			680.5,162.2 675.1,177.7 670,162.2 		"/>
		<rect x="686.3" y="162.2" fill-rule="evenodd" clip-rule="evenodd" fill="#FFFFFF" width="2.4" height="17.8"/>
		<path fill-rule="evenodd" clip-rule="evenodd" fill="#FFFFFF" d="M706.1,162.9c-2.8-1-5.6-0.9-8.4,0.1c-2.9,1.3-4.6,3.6-5,6.8
			c-0.3,2.2,0.1,4.4,1.1,6.4c1.3,2,3.1,3.3,5.4,3.7c2.3,0.5,4.6,0.4,6.8-0.4l-0.1-2.2c-2.2,0.9-4.4,1-6.6,0.3
			c-2.2-0.8-3.5-2.4-4-4.7c-0.4-1.8-0.2-3.6,0.6-5.3c1-1.8,2.4-2.9,4.4-3.2c1.9-0.3,3.8-0.1,5.6,0.7L706.1,162.9z"/>
		<polygon fill-rule="evenodd" clip-rule="evenodd" fill="#FFFFFF" points="709.9,162.2 709.9,180.1 719.7,180.1 719.7,178 
			712.4,178 712.4,171.8 719,171.8 719,169.8 712.4,169.8 712.4,164.2 719.4,164.2 719.4,162.2 		"/>
	</g>
	<g>
		<g>
			<path fill-rule="evenodd" clip-rule="evenodd" fill="#FFFFFF" d="M734,136.7c-4.8,0-8.6,3.9-8.6,8.6c0,4.7,3.9,8.6,8.6,8.6
				c0,0,0,0,0,0c4.8,0,8.6-3.9,8.6-8.6c0,0,0,0,0,0C742.6,140.5,738.7,136.7,734,136.7z M734,152.6c-4,0-7.3-3.3-7.3-7.3
				c0-4,3.3-7.3,7.3-7.3c4,0,7.3,3.3,7.3,7.3C741.3,149.3,738,152.6,734,152.6z M737.4,142.7c-0.4-1.4-1.4-2.1-2.8-2.2h-4.4v9.4h1.6
				v-3.7h2.5l1.6,3.7h1.7l-1.7-4C737.1,145.2,737.6,144.1,737.4,142.7z M734.6,144.6h-2.8v-2.5h2.8c0.8,0.1,1.2,0.5,1.2,1.2
				C735.8,144.1,735.3,144.6,734.6,144.6z"/>
		</g>
	</g>
	<g>
		<path fill-rule="evenodd" clip-rule="evenodd" fill="#FFFFFF" d="M38.8,152.4h21.1V50.2H43.2c-0.1,3.3-1.2,6.3-3.3,8.9
			c-2.4,2.6-5.3,4-8.7,4.3c-0.8,0.1-1.7,0.1-2.5,0.1v16.5h10.1V152.4z"/>
		<rect x="66.1" y="93" fill-rule="evenodd" clip-rule="evenodd" fill="#FFFFFF" width="24.3" height="16.9"/>
		<path fill-rule="evenodd" clip-rule="evenodd" fill="#FFFFFF" d="M96.7,114.8c0,7.2,0,14.4,0.2,21.6c0,2.7,0.4,5.3,1.1,7.8
			c0.5,1.7,1.4,3.3,2.6,4.6c1.3,1.3,2.9,2.2,4.7,2.7c2.8,0.8,5.6,1.2,8.5,1.3c6.3,0.3,12.5,0.2,18.7-0.4c2-0.2,4-0.7,5.9-1.4
			c2.8-1.2,4.7-3.2,5.6-6.2c0.8-2.4,1.2-4.8,1.3-7.3c0.2-6.5,0.3-13,0.2-19.4c0.1-3,0-6-0.3-9c-0.2-2.3-0.9-4.4-2.1-6.4
			c-1.3-2-3.1-3.5-5.3-4.5c-0.5-0.3-1.1-0.5-1.7-0.7c2.2-0.4,4-1.4,5.6-2.9c1.5-1.5,2.5-3.2,3-5.3c0.6-2.4,0.9-4.9,0.8-7.4
			c0.1-5.7,0-11.4-0.2-17.1c-0.1-2.5-0.5-4.9-1.3-7.3c-1.1-2.9-3-4.9-5.8-6.1c-2.1-0.8-4.3-1.3-6.5-1.5c-7.2-0.6-14.4-0.6-21.5,0.1
			c-2.1,0.2-4.1,0.7-6.1,1.4c-2.8,1.1-4.7,3-5.8,5.9c-0.7,2.3-1.2,4.7-1.3,7.1c-0.2,6.5-0.3,13-0.2,19.4c0,2.5,0.5,5,1.5,7.3
			c1.3,2.9,3.4,4.9,6.4,5.9c0.5,0.2,1.1,0.3,1.6,0.5c-2.1,0.7-4,1.9-5.7,3.4c-1.7,1.8-2.7,3.9-3.2,6.3
			C96.9,109.8,96.7,112.3,96.7,114.8z M124.2,83.1v2.1c0,0.7-0.2,1.4-0.6,1.9c-0.5,0.6-1.1,0.9-1.9,1c-0.6,0.1-1.2,0.1-1.8-0.1
			c-0.6-0.2-1.1-0.7-1.4-1.3c-0.2-0.6-0.4-1.2-0.5-1.9c-0.1-0.5-0.1-1.1-0.1-1.7V69.8c0-0.7,0.2-1.4,0.5-2c0.5-0.6,1.1-1,1.9-1.2
			c0.7-0.1,1.3,0,2,0.1c0.7,0.3,1.2,0.7,1.5,1.4c0.2,0.5,0.3,1.1,0.4,1.7c0.1,0.6,0.1,1.2,0.1,1.9V83.1z M124.2,130.8v2
			c0,0.7-0.2,1.4-0.6,1.9c-0.5,0.6-1.1,0.9-1.9,1c-0.6,0.1-1.2,0.1-1.8-0.1c-0.6-0.3-1.1-0.7-1.4-1.4c-0.2-0.6-0.4-1.2-0.5-1.8
			c-0.1-0.6-0.1-1.1-0.1-1.7v-21.2c0-0.7,0.2-1.4,0.6-1.9c0.5-0.6,1.1-1,1.9-1.1c0.7-0.1,1.3-0.1,2,0.1c0.7,0.2,1.1,0.7,1.4,1.3
			c0.2,0.5,0.3,1,0.4,1.6c0.1,0.7,0.1,1.3,0.1,2V130.8z"/>
		<path fill-rule="evenodd" clip-rule="evenodd" fill="#FFFFFF" d="M151.8,71v60.6c-0.1,3.6,0.2,7.1,0.8,10.6
			c0.3,1.8,0.9,3.5,1.9,5.1c1.3,1.9,3,3.2,5.1,3.9c2.6,0.8,5.2,1.3,7.9,1.5c6.5,0.4,13,0.4,19.5-0.2c2.2-0.2,4.4-0.7,6.5-1.5
			c2.8-1.2,4.7-3.2,5.7-6.1c0.7-2.3,1.2-4.7,1.3-7.2c0.1-2,0.2-4,0.2-6V71c0.1-3.6-0.2-7.1-0.7-10.6c-0.3-1.8-1-3.5-1.9-5
			c-1.3-1.9-3-3.2-5.1-3.9c-2.6-0.8-5.3-1.4-8-1.5c-6.6-0.4-13.1-0.3-19.6,0.2c-2.1,0.2-4.1,0.6-6.1,1.3c-2.2,0.8-3.9,2.3-5.1,4.4
			c-0.9,1.8-1.5,3.7-1.7,5.7C151.9,64.7,151.7,67.9,151.8,71z M173,71.8v-2.2c0-0.7,0.2-1.4,0.7-2c0.5-0.5,1.1-0.9,1.8-1
			c0.6-0.1,1.3-0.1,1.9,0.1c0.7,0.3,1.2,0.7,1.5,1.4c0.2,0.5,0.3,1.1,0.4,1.7c0.1,0.6,0.1,1.2,0.1,1.9V133c0,0.7-0.1,1.4-0.5,2
			c-0.5,0.6-1.1,0.9-1.8,1c-0.6,0.1-1.3,0.1-1.9-0.1c-0.7-0.3-1.1-0.7-1.4-1.3c-0.3-0.6-0.5-1.2-0.5-1.8c0-0.6,0-1.1,0-1.7V71.8z"/>
		<path fill-rule="evenodd" clip-rule="evenodd" fill="#FFFFFF" d="M206.9,71v60.6c-0.1,3.6,0.2,7.1,0.8,10.6
			c0.3,1.8,0.9,3.5,1.9,5.1c1.3,1.9,3,3.2,5.1,3.9c2.6,0.8,5.2,1.3,7.9,1.5c6.5,0.4,13,0.4,19.5-0.2c2.2-0.2,4.4-0.7,6.5-1.5
			c2.8-1.2,4.7-3.2,5.7-6.1c0.7-2.3,1.2-4.7,1.3-7.2c0.1-2,0.2-4,0.2-6V71c0.1-3.6-0.2-7.1-0.7-10.6c-0.3-1.8-1-3.5-1.9-5
			c-1.3-1.9-3-3.2-5.1-3.9c-2.6-0.8-5.3-1.4-8-1.5c-6.6-0.4-13.1-0.3-19.6,0.2c-2.1,0.2-4.1,0.6-6.1,1.3c-2.2,0.8-3.9,2.3-5.1,4.4
			c-0.9,1.8-1.5,3.7-1.7,5.7C207,64.7,206.9,67.9,206.9,71z M228.2,71.8v-2.2c0-0.7,0.2-1.4,0.7-2c0.5-0.5,1.1-0.9,1.8-1
			c0.6-0.1,1.3-0.1,1.9,0.1c0.7,0.3,1.2,0.7,1.5,1.4c0.2,0.5,0.3,1.1,0.4,1.7c0.1,0.6,0.1,1.2,0.1,1.9V133c0,0.7-0.1,1.4-0.5,2
			c-0.5,0.6-1.1,0.9-1.9,1c-0.6,0.1-1.3,0.1-1.9-0.1c-0.7-0.3-1.1-0.7-1.4-1.3c-0.3-0.6-0.5-1.2-0.5-1.8c0-0.6-0.1-1.1-0.1-1.7V71.8
			z"/>
		<rect x="262.1" y="93" fill-rule="evenodd" clip-rule="evenodd" fill="#FFFFFF" width="24.3" height="16.9"/>
		<path fill-rule="evenodd" clip-rule="evenodd" fill="#FFFFFF" d="M292.5,70.8V132c-0.1,3.3,0.2,6.7,0.7,10c0.3,2,1,3.9,2.1,5.7
			c1.2,1.8,2.9,3.1,4.9,3.9c2.3,0.9,4.7,1.4,7.2,1.5c3.6,0.3,7.1,0.2,10.6-0.4c3.2-0.8,6-2.4,8.3-4.9c0.6-0.7,1.2-1.4,1.8-2.2
			l3.9,6.8h9.4V100h-25.2v16.5h4v16.8c0,0.6-0.1,1.1-0.4,1.6c-0.4,0.8-1.1,1.2-1.9,1.4c-0.7,0.1-1.3,0.1-2-0.1
			c-0.7-0.2-1.1-0.7-1.4-1.3c-0.3-0.6-0.5-1.2-0.5-1.9c0-0.6-0.1-1.1-0.1-1.7V71.4c0-0.9,0-1.9,0.1-2.8c0.1-0.5,0.2-0.9,0.4-1.3
			c0.3-0.5,0.8-0.9,1.3-1c0.7-0.1,1.3-0.1,2,0c0.6,0.1,1.1,0.4,1.5,0.8c0.4,0.4,0.6,0.9,0.7,1.4c0.2,0.9,0.3,1.8,0.3,2.8V85h21.2
			c0.1-6.3,0-12.7-0.1-19.1c-0.1-2.6-0.5-5.2-1.2-7.7c-0.5-1.8-1.4-3.4-2.6-4.6c-1.4-1.2-2.9-2.1-4.7-2.6c-2.8-0.7-5.6-1.1-8.5-1.2
			c-6.3-0.3-12.6-0.2-18.8,0.4c-2.1,0.2-4,0.7-5.9,1.4c-2.8,1.1-4.6,3.1-5.6,6c-0.7,2.1-1,4.3-1.1,6.5
			C292.6,66.3,292.5,68.5,292.5,70.8z"/>
		<path fill-rule="evenodd" clip-rule="evenodd" fill="#FFFFFF" d="M346.6,70.8v61.1c-0.1,3.6,0.2,7.2,0.7,10.8
			c0.4,1.8,1,3.5,1.9,5.1c1.3,1.9,3,3.2,5.1,3.9c2.6,0.8,5.2,1.3,7.9,1.5c6.5,0.4,13,0.3,19.5-0.2c2.2-0.2,4.4-0.7,6.5-1.5
			c2.8-1.1,4.7-3.1,5.7-6c0.7-2.3,1.2-4.8,1.3-7.3c0.1-2,0.2-4.1,0.2-6.1V70.8c0.1-3.4-0.1-6.7-0.6-10.1c-0.3-1.8-0.9-3.6-1.8-5.2
			c-1.2-1.9-2.8-3.3-4.9-4.1c-2.1-0.7-4.3-1.2-6.6-1.4c-7.2-0.6-14.3-0.6-21.5,0.1c-2.1,0.2-4.1,0.6-6.1,1.3c-2.1,0.7-3.7,2-4.9,3.9
			c-0.9,1.7-1.5,3.5-1.7,5.5C346.7,64.1,346.5,67.4,346.6,70.8z M367.8,71.4c0-0.8,0-1.5,0-2.2c0-0.7,0.2-1.3,0.6-1.9
			c0.6-0.7,1.3-1,2.2-1c0.5,0,1,0.1,1.4,0.2c0.8,0.2,1.3,0.7,1.6,1.5c0.2,0.6,0.3,1.2,0.4,1.8c0.1,0.5,0.1,1,0.1,1.5v61.9
			c0,0.7-0.1,1.4-0.5,1.9c-0.5,0.6-1.1,1-1.9,1.1c-0.7,0.1-1.3,0.1-2-0.1c-0.6-0.2-1.1-0.7-1.4-1.3c-0.2-0.6-0.4-1.2-0.5-1.9
			c-0.1-0.6-0.1-1.2-0.1-1.8V71.4z"/>
		<polygon fill-rule="evenodd" clip-rule="evenodd" fill="#FFFFFF" points="408.8,152.5 429.9,152.5 429.9,67.1 440.8,67.1 
			440.8,50.2 398,50.2 398,67.1 408.8,67.1 		"/>
		<rect x="439.8" y="93" fill-rule="evenodd" clip-rule="evenodd" fill="#FFFFFF" width="24.3" height="16.9"/>
		<path fill-rule="evenodd" clip-rule="evenodd" fill="#FFFFFF" d="M469.6,110.4v21.7c-0.1,3.5,0.2,7,0.7,10.4
			c0.3,1.8,0.9,3.4,1.7,5c1.2,1.8,2.8,3.1,4.8,3.9c2.4,0.9,4.9,1.4,7.5,1.5c6.6,0.5,13.1,0.4,19.7-0.2c2-0.2,4-0.7,5.9-1.4
			c2.8-1.1,4.7-3.1,5.7-5.9c0.7-2.2,1.1-4.4,1.2-6.6c0.2-2.2,0.2-4.5,0.2-6.7V50.2h-21.2v83c0,0.6-0.1,1.2-0.4,1.7
			c-0.3,0.7-0.8,1.1-1.5,1.3c-0.7,0.2-1.4,0.2-2.1,0.1c-0.7-0.2-1.2-0.6-1.5-1.2c-0.2-0.6-0.4-1.2-0.4-1.8c-0.1-0.7-0.1-1.3-0.2-1.9
			v-21H469.6z"/>
		<path fill-rule="evenodd" clip-rule="evenodd" fill="#FFFFFF" d="M523.3,50.2v81.9c-0.1,3.4,0.2,6.8,0.7,10.2
			c0.3,1.8,0.9,3.6,1.7,5.2c1.2,1.9,2.8,3.2,4.9,4c2.1,0.7,4.3,1.2,6.5,1.4c7.3,0.6,14.6,0.5,21.9-0.1c2-0.2,4-0.7,5.9-1.4
			c2.8-1.1,4.7-3.1,5.7-5.9c0.7-2.3,1.2-4.8,1.3-7.2c0.1-2,0.2-4,0.2-6V50.2h-21.2v83c0,0.7-0.1,1.3-0.5,1.9c-0.5,0.6-1.1,1-1.9,1.2
			c-0.7,0.1-1.3,0.1-2-0.1c-0.7-0.2-1.2-0.6-1.4-1.3c-0.3-0.6-0.5-1.2-0.5-1.8c0-0.6-0.1-1.1-0.1-1.7V50.2H523.3z"/>
		<polygon fill-rule="evenodd" clip-rule="evenodd" fill="#FFFFFF" points="577.8,152.5 596.1,152.5 596.1,102.4 606.7,152.5 
			626.5,152.5 626.5,50.2 608.1,50.2 608.1,102.6 597.5,50.2 577.8,50.2 		"/>
		<polygon fill-rule="evenodd" clip-rule="evenodd" fill="#FFFFFF" points="652.1,103.5 662.3,152.5 683.6,152.5 670.2,96.2 
			681.2,50.2 660.2,50.2 652.1,91.3 652.1,50.2 631.8,50.2 631.8,152.5 652.1,152.5 		"/>
		<path fill-rule="evenodd" clip-rule="evenodd" fill="#FFFFFF" d="M698,152.5h21.1v-16.8H698V152.5z M698,129.2h21
			c0-3.4,0-6.8,0.1-10.2c0.1-2.1,0.5-4.1,1.2-6.1c0.8-1.7,1.7-3.3,2.8-4.8c2.5-3.4,4.8-6.9,7-10.5c2.1-3.7,3.2-7.6,3.2-11.9
			c0.1-6.8,0.1-13.5-0.1-20.3c0-2.4-0.4-4.7-1-7.1c-0.6-2.2-1.9-4-3.7-5.4c-1.7-1.1-3.5-1.9-5.4-2.3c-3.6-0.7-7.3-1.1-11-1
			c-4.8-0.1-9.6,0-14.4,0.5c-2,0.2-3.9,0.7-5.8,1.5c-2.8,1.1-4.7,3.2-5.7,6.1c-0.8,2.4-1.3,4.9-1.4,7.5c-0.2,5.2-0.3,10.4-0.2,15.6
			V86h21V71c0-0.8,0.1-1.5,0.3-2.2c0.1-0.5,0.4-1,0.8-1.3c0.4-0.3,0.8-0.5,1.3-0.6c0.8-0.2,1.6-0.1,2.4,0.1c1,0.4,1.6,1.1,1.8,2.1
			c0.1,0.3,0.1,0.5,0.1,0.8c0,4.7,0,9.5,0,14.2c0,1.8-0.4,3.5-1,5.1c-0.7,1.8-1.7,3.4-2.7,5c-2.2,3.1-4.3,6.2-6.4,9.3
			c-2,3-3.3,6.3-4,9.9c-0.1,1.2-0.2,2.3-0.2,3.5V129.2z"/>
	</g>
	<path fill-rule="evenodd" clip-rule="evenodd" fill="#FFFFFF" d="M288,166.2c-1.3-2-3.1-3.3-5.4-3.7c-2.3-0.5-4.6-0.4-6.8,0.4v0.4
		v1.8v12.2v1.1v1.1c2.8,1,5.5,0.9,8.3-0.1c2.9-1.3,4.6-3.6,5-6.8C289.4,170.3,289.1,168.2,288,166.2z M285.9,174.7
		c-1,1.8-2.4,2.9-4.4,3.2c-1.1,0.2-2.2,0.2-3.2,0v-13.6c1.4-0.2,2.8-0.1,4.3,0.3c2.2,0.8,3.5,2.4,4,4.7
		C286.9,171.3,286.7,173,285.9,174.7z"/>
	<polygon fill-rule="evenodd" clip-rule="evenodd" fill="#FFFFFF" points="163.5,162.2 163.5,180.1 166,180.1 166,171.8 
		173.9,171.8 173.9,180.1 176.4,180.1 176.4,162.2 173.9,162.2 173.9,169.8 166,169.8 166,162.2 	"/>
</g>
</svg>
