<?xml version="1.0" encoding="utf-8"?>
<!-- Generator: Adobe Illustrator 18.0.0, SVG Export Plug-In . SVG Version: 6.00 Build 0)  -->
<!DOCTYPE svg PUBLIC "-//W3C//DTD SVG 1.1//EN" "http://www.w3.org/Graphics/SVG/1.1/DTD/svg11.dtd">
<svg version="1.1" id="Capa_1" xmlns="http://www.w3.org/2000/svg" xmlns:xlink="http://www.w3.org/1999/xlink" x="0px" y="0px"
	 viewBox="0 0 640 1136" enable-background="new 0 0 640 1136" xml:space="preserve">
<g>
	<g>
		<path fill="#FFFFFF" stroke="#000000" stroke-miterlimit="10" d="M640,369.6c-23.6,10.4-48.8,17.5-75.4,20.7
			c27.1-16.2,47.9-42,57.7-72.6c-25.4,15-53.5,26-83.4,31.9c-24-25.6-58-41.5-95.8-41.5c-72.5,0-131.3,58.8-131.3,131.3
			c0,10.3,1.2,20.3,3.4,29.9c-109.1-5.5-205.8-57.7-270.6-137.2c-11.3,19.4-17.8,41.9-17.8,66c0,45.6,23.2,85.7,58.4,109.3
			c-21.5-0.7-41.8-6.6-59.5-16.5v1.6c0,63.6,45.3,116.7,105.3,128.7c-11,3-22.6,4.6-34.6,4.6c-8.5,0-16.7-0.8-24.7-2.4
			c16.7,52.2,65.2,90.1,122.6,91.2c-44.9,35.2-101.5,56.1-163,56.1c-10.6,0-21-0.6-31.3-1.8c58.1,37.3,127.1,59.1,201.2,59.1
			c241.5,0,373.5-200,373.5-373.5l-0.4-17C600.1,419,622.4,395.9,640,369.6z"/>
	</g>
</g>
</svg>
